<?xml version="1.0" standalone="no"?>
<!DOCTYPE svg PUBLIC "-//W3C//DTD SVG 20010904//EN"
 "http://www.w3.org/TR/2001/REC-SVG-20010904/DTD/svg10.dtd">
<svg version="1.0" xmlns="http://www.w3.org/2000/svg"
 width="600.000000pt" height="600.000000pt" viewBox="0 0 600.000000 600.000000"
 preserveAspectRatio="xMidYMid meet">
<metadata>
Created by potrace 1.11, written by Peter Selinger 2001-2013
</metadata>
<g transform="translate(0.000000,600.000000) scale(0.100000,-0.100000)"
fill="#000000" stroke="none">
<path d="M1705 5244 c-698 -404 -1275 -740 -1282 -746 -10 -8 -13 -313 -13
-1504 l0 -1493 28 -19 c15 -10 593 -344 1285 -741 895 -515 1264 -722 1280
-719 19 4 2443 1392 2540 1454 l37 24 0 1495 0 1495 -37 24 c-126 81 -2523
1460 -2543 1463 -18 3 -360 -191 -1295 -733z"/>
</g>
</svg>
