<?xml version="1.0" encoding="iso-8859-1"?>
<!-- Generator: Adobe Illustrator 19.0.0, SVG Export Plug-In . SVG Version: 6.00 Build 0)  -->
<svg version="1.1" id="Layer_1" xmlns="http://www.w3.org/2000/svg" xmlns:xlink="http://www.w3.org/1999/xlink" x="0px" y="0px"
	 viewBox="0 0 512.132 512.132" style="enable-background:new 0 0 512.132 512.132;" xml:space="preserve">
<g transform="translate(1 1)">
	<g>
		<path d="M510.147,174.853L467.48,89.519c-1.707-3.413-4.267-5.12-7.68-5.12H222.04c-0.568-0.054-1.143-0.052-1.713,0h-2.285
			l-26.189-79.36c-0.853-3.413-4.267-5.973-7.68-5.973h-28.16c-4.267,0-7.68,2.56-8.533,5.973l-26.189,79.36H101.4v-8.533
			c0-5.12-3.413-8.533-8.533-8.533H50.2c-5.12,0-8.533,3.413-8.533,8.533v25.6H7.533c-5.12,0-8.533,3.413-8.533,8.533v17.067
			c0,23.893,18.773,42.667,42.667,42.667v25.6c0,5.12,3.413,8.533,8.533,8.533h42.667c5.12,0,8.533-3.413,8.533-8.533v-8.533h17.067
			v307.2h-51.2c-5.12,0-8.533,3.413-8.533,8.533s3.413,8.533,8.533,8.533H127h85.333h102.4c5.12,0,8.533-3.413,8.533-8.533
			s-3.413-8.533-8.533-8.533h-93.867v-307.2h196.267v90.446c-11.144,11.761-17.067,27.698-17.067,44.381v10.24
			c0,5.12,3.413,8.533,8.533,8.533h8.533v17.067c0,5.12,3.413,8.533,8.533,8.533c9.387,0,17.067,7.68,17.067,17.067
			s-7.68,17.067-17.067,17.067s-17.067-7.68-17.067-17.067c0-5.12-3.413-8.533-8.533-8.533c-5.12,0-8.533,3.413-8.533,8.533
			c0,18.773,15.36,34.133,34.133,34.133s34.133-15.36,34.133-34.133c0-15.829-10.921-29.232-25.6-33.046v-9.621h8.533
			c5.12,0,8.533-3.413,8.533-8.533v-10.24c0-16.682-5.923-31.882-17.067-44.229v-90.598h68.267c3.413,0,5.973-1.707,7.68-3.413
			C511,180.826,511.853,177.413,510.147,174.853z M464.01,120.125l-37.776,45.196l-23.778-29.722l27.307-34.133h24.917
			L464.01,120.125z M154.794,122.799l-19.261,13.483v-26.965L154.794,122.799z M375.149,101.466h32.768l-16.384,20.48
			L375.149,101.466z M380.611,135.599L357.4,164.613l-23.211-29.013l23.211-29.013L380.611,135.599z M323.267,121.946l-16.384-20.48
			h32.768L323.267,121.946z M312.344,135.599l-23.211,29.013l-23.211-29.013l23.211-29.013L312.344,135.599z M255,121.946
			l-16.384-20.48h32.768L255,121.946z M203.8,136.282l-19.261-13.483l19.261-13.483V136.282z M198.111,153.121l-28.444,22.755
			l-28.444-22.756l28.444-19.911L198.111,153.121z M135.533,178.266v-7.851l20.48,16.384l-20.48,16.384V178.266z M183.32,391.599
			l20.48-16.384v32.768L183.32,391.599z M199.533,426.586l-28.966,26.102l-29.914-26.955l28.948-23.158L199.533,426.586z
			 M203.8,306.949v32.768l-20.48-16.384L203.8,306.949z M169.667,312.41l-29.013-23.211l29.013-23.211l29.013,23.211L169.667,312.41
			z M198.68,357.466l-29.013,23.211l-29.013-23.211l29.013-23.211L198.68,357.466z M203.8,271.45l-20.48-16.384l20.48-16.384V271.45
			z M169.667,244.143l-29.013-23.211l29.013-23.211l29.013,23.211L169.667,244.143z M156.013,255.066l-20.48,16.384v-32.768
			L156.013,255.066z M156.013,323.333l-20.48,16.384v-32.768L156.013,323.333z M155.966,391.637l-20.433,16.347v-32.738
			L155.966,391.637z M157.461,464.497l-21.928,19.759v-39.494L157.461,464.497z M170.141,475.909l20.101,18.091H150.04
			L170.141,475.909z M183.247,464.113l20.553-18.498v37.019L183.247,464.113z M203.8,178.266v24.917l-20.48-16.384l20.48-16.384
			V178.266z M220.867,154.667c0.528-1.634,0.513-3.27,0-4.751v-43.33l23.211,29.013l-23.211,29.013V154.667z M271.384,169.733
			h-32.768L255,149.253L271.384,169.733z M323.267,149.253l16.384,20.48h-32.768L323.267,149.253z M391.533,149.253l16.384,20.48
			h-32.768L391.533,149.253z M161.987,16.133H178.2l23.969,73.505l-32.502,22.752l-32.458-22.721L161.987,16.133z M16.067,127.066
			v-8.533h25.6v34.133C27.16,152.666,16.067,141.573,16.067,127.066z M84.333,186.799h-25.6v-25.6v-51.2v-25.6h25.6v8.533v85.333
			V186.799z M101.4,169.733v-68.267h17.067v68.267H101.4z M434.2,323.333h-17.067v-1.707c0-10.24,2.56-19.627,8.533-28.16
			c5.973,8.533,8.533,17.92,8.533,28.16V323.333z M444.618,169.733l27.653-33.085l16.542,33.085H444.618z"/>
	</g>
</g>
<g>
</g>
<g>
</g>
<g>
</g>
<g>
</g>
<g>
</g>
<g>
</g>
<g>
</g>
<g>
</g>
<g>
</g>
<g>
</g>
<g>
</g>
<g>
</g>
<g>
</g>
<g>
</g>
<g>
</g>
</svg>
